<svg width="359" height="22" viewBox="0 0 359 22" fill="none" xmlns="http://www.w3.org/2000/svg">
<path d="M2 1.69067C19.7562 1.69067 19.7562 19.6907 37.5125 19.6907C55.2687 19.6907 55.2687 1.69067 73.025 1.69067C90.7812 1.69067 90.7812 19.6907 108.496 19.6907C126.253 19.6907 126.253 1.69067 143.967 1.69067C161.723 1.69067 161.723 19.6907 179.438 19.6907C197.194 19.6907 197.194 1.69067 214.949 1.69067C232.706 1.69067 232.706 19.6907 250.463 19.6907C268.218 19.6907 268.218 1.69067 285.975 1.69067C303.731 1.69067 303.731 19.6907 321.488 19.6907C339.243 19.6907 339.243 1.69067 357 1.69067" stroke="#4F4F4F" stroke-width="3" stroke-miterlimit="10" stroke-linecap="round"/>
</svg>
